<?xml version="1.0" standalone="no"?>
<!DOCTYPE svg PUBLIC "-//W3C//DTD SVG 1.1//EN" "http://www.w3.org/Graphics/SVG/1.1/DTD/svg11.dtd" >
<svg xmlns="http://www.w3.org/2000/svg">
<metadata>
This is a custom SVG webfont generated by Font Squirrel.
Copyright   : Copyright  1988 1990 1993 2003 Linotype Library GmbH wwwlinotypecom All rights reserved Copyright  1988 1990 1993 Adobe Systems Incorporated All Rights Reserved
Designer    : Linotype Library GmbH
Foundry URL : httpwwwLinotypecom
</metadata>
<defs>
<font id="webfontf52l9gQ7" horiz-adv-x="1138" >
<font-face units-per-em="2048" ascent="1462" descent="-586" />
<missing-glyph horiz-adv-x="569" />
<glyph unicode=" "  horiz-adv-x="569" />
<glyph unicode="&#x09;" horiz-adv-x="569" />
<glyph unicode="&#xa0;" horiz-adv-x="569" />
<glyph unicode="!" horiz-adv-x="530" d="M152 0v227h227v-227h-227zM362 1462v-450l-51 -637h-92l-51 637v450h194z" />
<glyph unicode="&#x22;" horiz-adv-x="872" d="M510 934v528h139v-528h-139zM223 934v528h139v-528h-139z" />
<glyph unicode="#" d="M727 868h-254l-43 -307h254zM209 0l59 422h-198v139h219l43 307h-209v140h227l60 419h141l-59 -419h253l60 419h141l-59 -419h182v-140h-201l-43 -307h187v-139h-207l-60 -422h-141l60 422h-254l-60 -422h-141z" />
<glyph unicode="$" d="M51 446h174q4 -133 83 -214.5t206 -102.5v543q-229 57 -324.5 139t-95.5 256q0 182 120 300t300 130v135h113v-137q317 -39 403 -405h-174q-41 203 -229 237v-504l123 -32q49 -12 97 -37t103.5 -69t90 -115.5t34.5 -159.5q0 -193 -124 -309.5t-324 -135.5v-168h-113v168 q-205 20 -326 144t-137 337zM627 643v-514q264 18 264 262q0 106 -65.5 159.5t-198.5 92.5zM514 854v479q-104 -12 -169.5 -74.5t-65.5 -173.5q0 -98 58 -148t177 -83z" />
<glyph unicode="%" horiz-adv-x="2048" d="M342 1040q0 -297 172 -297q180 0 180 299q0 297 -174 297q-178 0 -178 -299zM188 1036q0 184 78 300t254 116q328 0 328 -410q0 -176 -81 -293.5t-247 -117.5q-174 0 -253 111.5t-79 293.5zM1354 385q0 -297 172 -297q180 0 180 299q0 297 -174 297q-178 0 -178 -299z M1200 381q0 184 78 300t254 116q328 0 328 -410q0 -176 -81 -294t-247 -118q-174 0 -253 112t-79 294zM385 -45l1102 1524h174l-1100 -1524h-176z" />
<glyph unicode="&#x26;" horiz-adv-x="1290" d="M563 899q59 39 91 63.5t68 78t36 112.5q0 66 -46 111t-122 45q-68 0 -118 -40t-50 -116q0 -18 4 -36.5t14.5 -39t16.5 -35t24 -38.5l26 -34l30 -37q22 -28 26 -34zM1094 0l-156 182q-63 -100 -176 -153.5t-238 -53.5q-139 0 -236.5 44t-141.5 113t-61 128t-17 115 q0 156 89 256t253 186q-8 10 -46 62.5t-48.5 69t-32 57.5t-28.5 76.5t-7 78.5q0 125 88 213t242 88q147 0 250.5 -78.5t103.5 -220.5q0 -219 -275 -379l265 -321q41 115 47 227h166q-12 -125 -31 -188.5t-68 -171.5l285 -330h-227zM842 303l-336 404q-125 -70 -189.5 -141.5 t-64.5 -188.5q0 -106 84 -177t194 -71q195 0 312 174z" />
<glyph unicode="'" horiz-adv-x="569" d="M215 934v528h139v-528h-139z" />
<glyph unicode="(" horiz-adv-x="530" d="M551 -406h-133q-158 246 -240 475.5t-82 483.5q0 244 83 490.5t239 453.5h133q-270 -426 -270 -944q0 -523 270 -959z" />
<glyph unicode=")" horiz-adv-x="530" d="M113 -406h-133q270 426 270 945q0 522 -270 958h133q158 -246 239.5 -475t81.5 -483q0 -244 -82.5 -491t-238.5 -454z" />
<glyph unicode="*" horiz-adv-x="720" d="M412 1462v-231l219 82l41 -99l-223 -77l135 -187l-84 -63l-142 196l-133 -196l-92 63l133 187l-217 77l37 99l217 -82v231h109z" />
<glyph unicode="+" horiz-adv-x="1228" d="M684 1036v-448h446v-139h-446v-449h-139v449h-447v139h447v448h139z" />
<glyph unicode="," horiz-adv-x="569" d="M170 0v227h227v-207q0 -254 -225 -321v102q63 23 94 82.5t25 116.5h-121z" />
<glyph unicode="-" horiz-adv-x="796" d="M102 487v164h592v-164h-592z" />
<glyph unicode="." horiz-adv-x="569" d="M170 0v227h227v-227h-227z" />
<glyph unicode="/" horiz-adv-x="681" d="M-37 -35l606 1532h150l-606 -1532h-150z" />
<glyph unicode="0" d="M270 715q0 -76 2 -121t9.5 -125t27 -130t51 -103.5t85 -80t125 -26.5t125 26.5t85 80t51 103.5t26.5 130t9 125t2 121q0 74 -2 120t-9 124.5t-26.5 130t-51 103.5t-85 78.5t-125 26.5t-125 -26.5t-85 -78.5t-51 -103.5t-27 -130t-9.5 -124.5t-2 -120zM86 713 q0 96 5 166.5t19.5 165t47 160t84 126t134.5 91t193.5 30.5t193.5 -30.5t134 -91t84 -126t47 -160t19.5 -165t5.5 -166.5q0 -117 -6.5 -202t-34 -193.5t-76.5 -177t-142.5 -117t-224.5 -48.5t-224 48.5t-142 117t-77 177t-34 193.5t-6 202z" />
<glyph unicode="1" d="M729 1452v-1452h-174v1040h-377v140q371 0 418 272h133z" />
<glyph unicode="2" d="M264 938h-174q-12 225 114 369.5t353 144.5q197 0 326 -110.5t129 -307.5q0 -92 -28 -167.5t-84 -136t-107.5 -101.5t-133.5 -92l-74 -44q-65 -38 -81 -50l-68 -45q-51 -34 -69 -54l-50 -54q-31 -34 -45 -67t-20 -69h745v-154h-948q10 123 44 217t95.5 164t119 114 t149.5 99q211 131 290.5 217t79.5 225q0 117 -80.5 189.5t-199.5 72.5q-141 0 -214 -107.5t-69 -252.5z" />
<glyph unicode="3" d="M446 682v147q14 -2 39 -2h37q117 0 197 62.5t80 175.5t-72 173t-186 60q-135 0 -205 -89t-70 -226h-174q8 215 123 342t326 127q199 0 320.5 -98.5t121.5 -290.5q0 -94 -56.5 -171t-144.5 -118v-4q129 -29 195.5 -123t66.5 -229q0 -209 -142 -326t-357 -117 q-225 0 -356.5 125t-127.5 349h175q4 -145 83.5 -232.5t225.5 -87.5q133 0 224 77t91 204q0 131 -87 204.5t-222 73.5q-56 0 -105 -6z" />
<glyph unicode="4" d="M207 494h487v710h-4zM858 1452v-958h197v-154h-197v-340h-164v340h-637v168l662 944h139z" />
<glyph unicode="5" d="M963 1427v-153h-586l-78 -418l4 -4q92 104 270 104q205 0 337 -129t132 -368q0 -199 -134 -341.5t-373 -142.5q-195 0 -327 113t-136 303h174q8 -115 92 -188.5t213 -73.5q131 0 219 90t88 254q0 143 -91 236.5t-237 93.5q-158 0 -270 -137l-149 8l135 753h717z" />
<glyph unicode="6" d="M1022 1081h-174q-12 100 -76.5 158.5t-167.5 58.5q-338 0 -352 -550l4 -5q117 190 362 191q205 0 325 -132t120 -339q0 -86 -25.5 -167t-79 -155.5t-151.5 -120t-229 -45.5q-500 0 -500 699q0 160 26.5 292t85 245.5t166 177t256.5 63.5q180 0 287 -96.5t123 -274.5z M586 780q-141 0 -221 -93t-80 -234q0 -139 80.5 -231.5t220.5 -92.5q135 0 214 93t79 229q0 143 -75 236t-218 93z" />
<glyph unicode="7" d="M1042 1427v-149q-221 -217 -378.5 -578.5t-178.5 -699.5h-194q25 354 179.5 682t393.5 582h-762v163h940z" />
<glyph unicode="8" d="M317 1075q0 -113 73 -173t185 -60q106 0 173 62.5t67 170.5q0 106 -66.5 164.5t-177.5 58.5q-109 0 -181.5 -59.5t-72.5 -163.5zM133 1081q0 170 125 270.5t301 100.5q221 0 330.5 -107.5t109.5 -263.5q0 -98 -54 -179t-146 -122q258 -82 258 -362q0 -205 -136.5 -324 t-345.5 -119q-219 0 -356 115t-137 328q0 129 65.5 224t188.5 138q-92 37 -147.5 120t-55.5 181zM266 410q0 -129 86 -205t223 -76q129 0 213 80t84 203q0 117 -88 196.5t-211 79.5q-131 0 -219 -76.5t-88 -201.5z" />
<glyph unicode="9" d="M100 350h174q10 -102 85 -161.5t182 -59.5q313 0 327 561l-4 4q-49 -92 -139 -146t-197 -54q-219 0 -338.5 133t-119.5 352q0 209 133 341t344 132q498 0 497 -694q0 -782 -503 -783q-188 0 -306.5 96.5t-134.5 278.5zM838 967q0 141 -80 236t-219 95q-145 0 -215 -98 t-70 -246q0 -123 82 -215t205 -92q133 0 215 93.5t82 226.5z" />
<glyph unicode=":" horiz-adv-x="569" d="M397 1059v-228h-227v228h227zM170 0v227h227v-227h-227z" />
<glyph unicode=";" horiz-adv-x="569" d="M397 1059v-228h-227v228h227zM170 0v227h227v-207q4 -254 -225 -321v102q63 23 94 82.5t25 116.5h-121z" />
<glyph unicode="&#x3c;" horiz-adv-x="1228" d="M1135 1053v-140l-871 -395l871 -395v-139l-1041 471v127z" />
<glyph unicode="=" horiz-adv-x="1228" d="M98 242v139h1032v-139h-1032zM1130 795v-140h-1032v140h1032z" />
<glyph unicode="&#x3e;" horiz-adv-x="1228" d="M94 -16v139l871 395l-871 395v140l1041 -471v-127z" />
<glyph unicode="?" d="M446 0v227h228v-227h-228zM287 1006h-174q-4 213 121.5 352t336.5 139q195 0 314 -108.5t119 -301.5q0 -80 -29 -148.5t-59.5 -105t-88.5 -94.5q-45 -43 -66.5 -65.5t-53 -62.5t-45 -83t-13.5 -92v-80h-174v97q4 80 32 146.5t67 107.5l84 86l82 84q38 39 60.5 98 t18.5 129q-8 113 -72.5 176t-175.5 63q-141 0 -212.5 -93.5t-71.5 -243.5z" />
<glyph unicode="@" horiz-adv-x="1638" d="M1266 1135l-172 -582q-23 -76 -23 -104q0 -63 49 -64q94 0 188.5 154.5t94.5 316.5q0 233 -165 380.5t-390 147.5q-260 0 -441.5 -193.5t-181.5 -463.5q0 -272 186.5 -460.5t446.5 -188.5q145 0 282.5 67.5t225.5 180.5h129q-100 -168 -271 -264.5t-370 -96.5 q-324 0 -546 223.5t-222 548.5q0 313 223 536.5t537 223.5q289 0 492.5 -179t203.5 -452q0 -127 -48 -241.5t-121 -189.5t-155.5 -119t-154.5 -44q-55 0 -91 34t-40 100h-6q-121 -137 -254 -138q-129 0 -211 93.5t-82 230.5q0 225 137 403.5t344 178.5q166 0 230 -168 l47 129h129zM860 1034q-135 0 -231.5 -141t-96.5 -287q0 -86 49.5 -142t127.5 -56q125 0 221 147t96 289q0 74 -51.5 132t-114.5 58z" />
<glyph unicode="A" horiz-adv-x="1327" d="M659 1286l-247 -682h495l-243 682h-5zM-14 0l571 1462h215l571 -1462h-215l-159 440h-619l-164 -440h-200z" />
<glyph unicode="B" horiz-adv-x="1402" d="M354 1298v-464h389q164 0 238 57t74 176q0 139 -80 185t-232 46h-389zM160 0v1462h530q301 0 387 -53q172 -102 172 -305q0 -240 -217 -328v-4q133 -29 206 -122t73 -230q0 -170 -119 -295t-326 -125h-706zM354 670v-506h488q127 0 200.5 70.5t73.5 191.5q0 244 -317 244 h-445z" />
<glyph unicode="C" horiz-adv-x="1478" d="M1382 1022h-194q-31 152 -141.5 231.5t-268.5 79.5q-246 0 -370.5 -171t-124.5 -421q0 -268 123.5 -440t373.5 -172q186 0 298 118t124 304h195q-29 -279 -193 -432.5t-440 -153.5q-326 0 -501 213t-175 549q0 334 183.5 552t508.5 218q238 0 404.5 -124t197.5 -351z" />
<glyph unicode="D" horiz-adv-x="1441" d="M354 1298v-1134h324q53 0 103 7t126 41t129.5 91t93 170t39.5 266q0 274 -114.5 416.5t-372.5 142.5h-328zM160 0v1462h502q342 0 522 -174t180 -522q0 -766 -702 -766h-502z" />
<glyph unicode="E" horiz-adv-x="1251" d="M160 0v1462h1009v-164h-815v-464h760v-164h-760v-506h822v-164h-1016z" />
<glyph unicode="F" horiz-adv-x="1175" d="M160 0v1462h960v-164h-766v-464h672v-164h-672v-670h-194z" />
<glyph unicode="G" horiz-adv-x="1554" d="M1305 0l-52 182q-82 -109 -207.5 -163t-261.5 -54q-211 0 -372.5 105.5t-242.5 271.5t-81 360q0 338 182.5 566.5t513.5 228.5q252 0 421 -120t208 -365h-194q-29 160 -146 240.5t-289 80.5q-248 0 -374.5 -181t-126.5 -439q0 -242 134 -413t367 -171q223 0 351 135 q119 127 119 317q0 12 -1 25h-467v164h641v-770h-122z" />
<glyph unicode="H" horiz-adv-x="1478" d="M160 0v1462h194v-628h770v628h195v-1462h-195v670h-770v-670h-194z" />
<glyph unicode="I" horiz-adv-x="530" d="M168 0v1462h194v-1462h-194z" />
<glyph unicode="J" horiz-adv-x="1062" d="M903 1462v-1097q0 -168 -102.5 -284t-329.5 -116q-205 0 -315.5 109.5t-110.5 316.5v90h195v-61q0 -141 51 -216t184 -75q127 0 180.5 67.5t53.5 196.5v1069h194z" />
<glyph unicode="K" horiz-adv-x="1366" d="M160 0v1462h194v-729l742 729h252l-617 -590l641 -872h-246l-528 739l-244 -227v-512h-194z" />
<glyph unicode="L" d="M160 0v1462h194v-1298h774v-164h-968z" />
<glyph unicode="M" horiz-adv-x="1783" d="M164 0v1462h266l461 -1229l463 1229h266v-1462h-184v1217h-4l-457 -1217h-166l-457 1217h-4v-1217h-184z" />
<glyph unicode="N" horiz-adv-x="1478" d="M158 0v1462h207l770 -1186h4v1186h184v-1462h-213l-764 1174h-4v-1174h-184z" />
<glyph unicode="O" horiz-adv-x="1556" d="M272 731q0 -156 50.5 -288t168 -223t287.5 -91t288 91t168 223t50 288t-50 288t-168 223t-288 91t-287.5 -91t-168 -223t-50.5 -288zM78 731q0 205 75.5 376t238.5 280.5t386 109.5t386 -109.5t239 -280.5t76 -376t-76 -376t-239 -280.5t-386 -109.5t-386 109.5 t-238.5 280.5t-75.5 376z" />
<glyph unicode="P" horiz-adv-x="1327" d="M354 1298v-536h381h5q315 0 315 268t-320 268h-381zM160 0v1462h641q217 0 332.5 -112.5t115.5 -319.5t-115 -320q-114 -112 -326 -112h-7h-447v-598h-194z" />
<glyph unicode="Q" horiz-adv-x="1556" d="M819 299l103 119l194 -156q168 168 168 469q0 156 -50 288t-168 223t-288 91t-287.5 -91t-168 -223t-50.5 -288t50.5 -288t168 -223t287.5 -91q104 0 203 41zM1450 -4l-98 -123l-224 180q-145 -88 -350 -88q-223 0 -386 109.5t-238.5 280.5t-75.5 376t75.5 376 t238.5 280.5t386 109.5t386 -109.5t239 -280.5t76 -376q0 -362 -222 -581z" />
<glyph unicode="R" horiz-adv-x="1402" d="M160 0v1462h688q207 0 325.5 -103.5t118.5 -279.5q0 -139 -62.5 -237.5t-191.5 -132.5v-4q115 -23 160 -98t59 -204q2 -18 5.5 -82.5t6.5 -94t11 -79t24.5 -84t38.5 -63.5h-217q-25 27 -30.5 83t-9 139t-13.5 138q-10 63 -21.5 102.5t-37 81.5t-71.5 61.5t-114 19.5h-475 v-625h-194zM354 788h406q156 0 247 56.5t91 204.5q0 115 -64.5 182t-195.5 67h-484v-510z" />
<glyph unicode="S" horiz-adv-x="1327" d="M1190 1034h-184q-33 299 -363 299q-141 0 -234.5 -58t-93.5 -192q0 -72 51.5 -120t134.5 -72.5t182 -45t199.5 -49t183.5 -70.5t134 -125t51 -200q0 -147 -90 -249.5t-214 -144.5t-267 -42q-262 0 -433 131t-171 385h184q0 -174 123 -263t303 -89q156 0 263.5 61.5 t107.5 204.5q0 111 -96.5 171.5t-233.5 87t-275.5 60.5t-234.5 121t-96 234q0 209 155.5 318.5t374.5 109.5q238 0 384.5 -116t154.5 -347z" />
<glyph unicode="T" horiz-adv-x="1175" d="M492 0v1298h-488v164h1170v-164h-488v-1298h-194z" />
<glyph unicode="U" horiz-adv-x="1478" d="M1327 1462v-934q0 -276 -149.5 -419.5t-425.5 -143.5q-291 0 -445.5 139.5t-154.5 423.5v934h194v-934q0 -195 104.5 -297t301.5 -102q186 0 283.5 102.5t97.5 296.5v934h194z" />
<glyph unicode="V" horiz-adv-x="1251" d="M1255 1462l-520 -1462h-221l-516 1462h211l418 -1267h4l422 1267h202z" />
<glyph unicode="W" horiz-adv-x="1896" d="M1872 1462l-391 -1462h-203l-334 1229h-4l-338 -1229h-203l-374 1462h198l287 -1216h4l328 1216h211l323 -1216h4l297 1216h195z" />
<glyph unicode="X" horiz-adv-x="1251" d="M-2 0l510 752l-481 710h233l365 -571l381 571h217l-484 -710l514 -752h-237l-393 604l-406 -604h-219z" />
<glyph unicode="Y" horiz-adv-x="1327" d="M1323 1462l-559 -864v-598h-195v598l-565 864h232l438 -696l428 696h221z" />
<glyph unicode="Z" horiz-adv-x="1251" d="M45 0v164l909 1134h-839v164h1069v-164l-908 -1134h932v-164h-1163z" />
<glyph unicode="[" horiz-adv-x="530" d="M530 1497v-139h-219v-1624h219v-140h-383v1903h383z" />
<glyph unicode="\" horiz-adv-x="681" d="M113 1497l606 -1532h-150l-606 1532h150z" />
<glyph unicode="]" horiz-adv-x="530" d="M0 -406v140h219v1624h-219v139h383v-1903h-383z" />
<glyph unicode="^" horiz-adv-x="1228" d="M102 541l447 886h131l446 -886h-143l-371 737l-364 -737h-146z" />
<glyph unicode="_" horiz-adv-x="1024" d="M0 -256v102h1024v-102h-1024z" />
<glyph unicode="`" horiz-adv-x="454" d="M221 1206l-268 293h223l176 -293h-131z" />
<glyph unicode="a" horiz-adv-x="1099" d="M1069 139v-135q-47 -29 -125 -29q-147 0 -147 164q-137 -164 -373 -164q-156 0 -253 73t-97 224q0 86 28.5 146.5t85 95.5t110.5 52.5t134 31.5q39 8 92.5 16.5t86 12.5t70.5 13t58.5 22.5t34.5 36t14 55.5q0 176 -235 176q-254 0 -264 -201h-174q8 184 131 269t317 85 q397 0 398 -290v-545q0 -72 8 -95.5t47 -23.5q22 0 53 10zM786 369v178q-41 -31 -137 -47.5t-178 -24.5t-147.5 -54t-65.5 -136q0 -80 58.5 -118t146.5 -38q158 0 240.5 76t82.5 164z" />
<glyph unicode="b" horiz-adv-x="1214" d="M137 0v1462h174v-547h4q82 168 338 168q233 0 360.5 -159.5t127.5 -397t-125 -394.5t-359 -157q-94 0 -192 40t-150 126h-4v-141h-174zM956 539q0 162 -84 276.5t-243 114.5q-164 0 -244 -117t-80 -283q0 -170 83 -285.5t251 -115.5q166 0 241.5 118t75.5 292z" />
<glyph unicode="c" horiz-adv-x="1099" d="M1030 719h-180q-43 211 -262 211q-174 0 -252 -117t-78 -297q0 -164 77 -275.5t232 -111.5q254 0 291 258h178q-29 -197 -148.5 -304.5t-318.5 -107.5q-238 0 -366.5 148.5t-128.5 392.5q0 250 129 408.5t370 158.5q190 0 314.5 -91t142.5 -273z" />
<glyph unicode="d" horiz-adv-x="1214" d="M258 520q0 -162 84 -276.5t244 -114.5q164 0 243.5 116.5t79.5 282.5q0 170 -83 286t-251 116q-166 0 -241.5 -118t-75.5 -292zM1077 1462v-1462h-174v143h-4q-82 -168 -338 -168q-233 0 -360 160t-127 397.5t126 394t357 156.5q94 0 192.5 -39.5t149.5 -125.5h4v544h174 z" />
<glyph unicode="e" horiz-adv-x="1099" d="M258 631h608q-8 127 -93 213t-212 86q-131 0 -213 -86t-90 -213zM862 336h172q-35 -174 -152.5 -267.5t-299.5 -93.5q-244 0 -372 152t-136 405q0 240 140 395.5t357 155.5q109 0 195 -38.5t139 -100t88 -143.5t48 -163q10 -62 11 -123q0 -19 -1 -38h-793v-13 q0 -139 80 -235q84 -100 250 -100q229 0 274 207z" />
<glyph unicode="f" horiz-adv-x="606" d="M203 0v905h-178v154h178v158q0 129 74.5 195.5t218.5 66.5q59 0 112 -17v-151q-43 14 -98 14q-68 0 -100.5 -26.5t-32.5 -92.5v-147h205v-154h-205v-905h-174z" />
<glyph unicode="g" horiz-adv-x="1175" d="M1044 1059v-969q0 -262 -120.5 -391t-370.5 -129q-109 0 -201 28.5t-162.5 101.5t-74.5 181h174q4 -86 89 -129t185 -43q317 0 318 402v69h-4q-43 -92 -133.5 -142t-196.5 -50q-225 0 -349 153.5t-124 382.5q0 100 25.5 193.5t79.5 178.5t153.5 136t230.5 51 q219 0 316 -176h2v152h163zM557 141q160 0 237.5 121t77.5 289q0 158 -74.5 268.5t-226.5 110.5q-158 0 -235.5 -109.5t-77.5 -275.5q0 -104 25.5 -190.5t95 -150t178.5 -63.5z" />
<glyph unicode="h" d="M131 0v1462h174v-559h4q39 90 134.5 135t199.5 45q197 0 281 -101t84 -286v-696h-174v717q0 98 -57.5 155.5t-158.5 57.5q-154 0 -233.5 -91t-79.5 -241v-598h-174z" />
<glyph unicode="i" horiz-adv-x="454" d="M315 1462v-213h-174v213h174zM141 0v1059h174v-1059h-174z" />
<glyph unicode="j" horiz-adv-x="454" d="M315 1462v-213h-174v213h174zM315 1059v-1194q0 -270 -254 -271q-49 0 -90 9v149q25 -4 35 -4h37q57 0 77.5 32t20.5 114v1165h174z" />
<glyph unicode="k" horiz-adv-x="1062" d="M141 0v1462h174v-866l484 463h233l-420 -385l451 -674h-221l-363 553l-164 -152v-401h-174z" />
<glyph unicode="l" horiz-adv-x="454" d="M141 0v1462h174v-1462h-174z" />
<glyph unicode="m" horiz-adv-x="1746" d="M131 0v1059h164v-156h4q119 180 342 180q231 0 291 -180q53 86 141 133t191 47q352 0 352 -307v-776h-174v694q0 113 -43 174.5t-162 61.5q-127 0 -201.5 -74t-74.5 -197v-659h-175v694q0 113 -44 174.5t-154 61.5q-135 0 -209 -93.5t-74 -177.5v-659h-174z" />
<glyph unicode="n" d="M131 0v1059h164v-168h4q109 193 344 192q197 0 281 -101t84 -286v-696h-174v717q0 98 -57.5 155.5t-158.5 57.5q-154 0 -233.5 -91t-79.5 -241v-598h-174z" />
<glyph unicode="o" horiz-adv-x="1175" d="M258 528.5q0 -186.5 94 -293t235.5 -106.5t236 106.5t94.5 293t-94.5 294t-236 107.5t-235.5 -107.5t-94 -294zM74 528q0 244 135 399.5t378.5 155.5t379 -155.5t135.5 -399.5q0 -242 -135.5 -397.5t-379 -155.5t-378.5 155.5t-135 397.5z" />
<glyph unicode="p" horiz-adv-x="1214" d="M137 -406v1465h174v-144h4q82 168 338 168q233 0 360.5 -159.5t127.5 -397t-125 -394.5t-359 -157q-94 0 -192 40t-150 126h-4v-547h-174zM956 539q0 162 -84 276.5t-243 114.5q-164 0 -244 -117t-80 -283q0 -170 83 -285.5t251 -115.5q166 0 241.5 118t75.5 292z" />
<glyph unicode="q" horiz-adv-x="1214" d="M258 520q0 -162 84 -276.5t244 -114.5q164 0 243.5 116.5t79.5 282.5q0 170 -83 286t-251 116q-166 0 -241.5 -118t-75.5 -292zM1077 1059v-1465h-174v549h-4q-82 -168 -338 -168q-233 0 -360 160t-127 397.5t126 394t357 156.5q94 0 192.5 -39.5t149.5 -125.5h4v141h174 z" />
<glyph unicode="r" horiz-adv-x="681" d="M125 0v1059h164v-223h4q63 131 157 191q87 57 214 57q9 0 18 -1v-184q-203 0 -293 -108.5t-90 -319.5v-471h-174z" />
<glyph unicode="s" horiz-adv-x="1024" d="M63 334h175q4 -109 83.5 -157t200.5 -48q256 0 256 158q0 63 -51 103t-128 55.5t-167 38t-167 49t-128 90t-51 159.5q0 147 119 224t276 77q195 0 308.5 -74.5t125.5 -256.5h-174q-4 63 -43 105t-90 57.5t-112 15.5q-94 0 -160 -31t-66 -104q0 -20 6.5 -38t19.5 -31 t27.5 -24.5t38.5 -21.5l44 -17q18 -7 49.5 -15.5t51 -12.5t55.5 -12l54 -13q76 -16 129.5 -35.5t107.5 -52.5t82 -87t28 -126q0 -174 -132.5 -254t-318.5 -80q-195 0 -318 87.5t-131 271.5z" />
<glyph unicode="t" horiz-adv-x="645" d="M373 1376v-317h211v-154h-211v-657q0 -61 24.5 -77.5t106.5 -16.5h80v-154h-133q-141 0 -196.5 46t-55.5 185v674h-181v154h181v317h174z" />
<glyph unicode="u" d="M1008 1059v-1059h-164v168h-4q-109 -193 -344 -193q-197 0 -281 101.5t-84 285.5v697h174v-717q0 -98 57.5 -155.5t157.5 -57.5q154 0 234 91t80 241v598h174z" />
<glyph unicode="v" horiz-adv-x="1024" d="M995 1059l-387 -1059h-186l-393 1059h194l297 -883h4l289 883h182z" />
<glyph unicode="w" horiz-adv-x="1552" d="M1518 1059l-338 -1059h-185l-215 842h-4l-213 -842h-188l-340 1059h192l240 -866h4l213 866h190l222 -866h4l237 866h181z" />
<glyph unicode="x" horiz-adv-x="1060" d="M18 0l398 557l-369 502h223l254 -371l264 371h209l-364 -488l409 -571h-223l-295 438l-295 -438h-211z" />
<glyph unicode="y" horiz-adv-x="1024" d="M1008 1059l-461 -1200q-63 -158 -128 -220.5t-179 -62.5q-72 0 -121 18v160q78 -25 102 -24q94 0 144 96l71 180l-420 1053h197l309 -866h4l297 866h185z" />
<glyph unicode="z" horiz-adv-x="983" d="M45 0v133l639 772h-598v154h823v-119l-647 -786h676v-154h-893z" />
<glyph unicode="{" horiz-adv-x="681" d="M633 1497v-123h-103q-98 0 -98 -176v-375q0 -125 -61.5 -193.5t-116.5 -80.5v-6q57 -8 117.5 -74t60.5 -201v-374q0 -176 98 -177h103v-123h-144q-84 0 -152.5 73t-68.5 196v373q0 109 -50 174t-120 65v139q68 0 119 69t51 173v373q0 123 69 195.5t152 72.5h144z" />
<glyph unicode="|" horiz-adv-x="454" d="M158 -438v2048h139v-2048h-139z" />
<glyph unicode="}" horiz-adv-x="681" d="M49 -406v123h103q98 0 98 177v374q0 125 61.5 193.5t116.5 81.5v6q-57 8 -117.5 73.5t-60.5 200.5v371q0 180 -98 180h-103v123h144q84 0 152.5 -72.5t68.5 -195.5v-373q0 -109 50 -175.5t120 -66.5v-139q-68 0 -119 -68.5t-51 -170.5v-373q0 -123 -69 -196t-152 -73 h-144z" />
<glyph unicode="~" horiz-adv-x="1228" d="M1014 653l73 -102q-55 -84 -112 -130t-144 -46q-92 0 -208 67q-135 80 -235.5 80t-172.5 -155l-74 102q86 176 256 176q78 0 228 -65q20 -8 70 -34t82 -37t57 -11q14 0 29.5 4t26.5 9t24 17l22 20q8 7 21.5 24.5t18.5 25.5l19 29z" />
<glyph d="M1143 1356l-94 -170q-143 141 -293 141q-154 0 -254 -131q-82 -106 -115 -274h580l-56 -125h-538q-2 -10 -2 -33v-31v-22q0 -14 2 -21h510l-54 -125h-446q68 -440 389 -440q98 0 174 39q53 27 141 108v-215q-139 -90 -315 -90q-502 0 -588 598h-157l55 125h94q-2 6 -2 21 v20v35q0 20 2 31h-149l53 125h110q49 254 187 397q154 166 395 166q187 0 371 -129z" />
<glyph unicode="&#x20ac;" d="M1143 1356l-94 -170q-143 141 -293 141q-154 0 -254 -131q-82 -106 -115 -274h580l-56 -125h-538q-2 -10 -2 -33v-31v-22q0 -14 2 -21h510l-54 -125h-446q68 -440 389 -440q98 0 174 39q53 27 141 108v-215q-139 -90 -315 -90q-502 0 -588 598h-157l55 125h94q-2 6 -2 21 v20v35q0 20 2 31h-149l53 125h110q49 254 187 397q154 166 395 166q187 0 371 -129z" />
<glyph unicode="&#xa1;" horiz-adv-x="530" d="M379 1059v-228h-227v228h227zM168 -406v451l51 637h92l51 -637v-451h-194z" />
<glyph unicode="&#xa2;" d="M557 -238v213q-219 8 -341 158t-122 383q0 231 121 391t342 176v195h80v-195q174 -4 283.5 -94t132.5 -270h-179q-20 96 -80.5 151.5t-156.5 59.5v-801q209 20 248 258h174q-18 -166 -130 -289t-292 -123v-213h-80zM557 129v801q-147 -18 -212.5 -132t-65.5 -282 q0 -156 69.5 -265.5t208.5 -121.5z" />
<glyph unicode="&#xa3;" d="M96 670v92h119q-96 160 -96 319q0 188 136 302t331 114q231 0 359 -134t124 -394h-174q-10 375 -299 374q-123 0 -208 -76.5t-85 -191.5q0 -39 5 -72.5t18.5 -68.5t22.5 -55.5t30.5 -61.5t30.5 -55h325v-92h-280q41 -78 41 -154q0 -66 -18.5 -121t-57.5 -105t-72 -80 l-90 -79l4 -4q139 59 215 59t195 -30q125 -37 172 -37q86 0 182 76l88 -136q-109 -94 -299 -94q-72 0 -203 41q-129 43 -215 43q-98 0 -204 -72l-97 136q96 66 161 161t65 205q0 76 -52 191h-174z" />
<glyph unicode="&#xa4;" d="M575 1073q-145 0 -244.5 -103.5t-99.5 -254.5q0 -150 99.5 -252.5t242.5 -102.5q141 0 237.5 104.5t96.5 254.5q0 145 -96.5 249.5t-235.5 104.5zM51 1137l101 100l114 -115q127 104 309 105q174 0 293 -103l117 115l102 -104l-112 -113q106 -113 106 -303 q0 -182 -106 -307l112 -115l-96 -96l-114 118q-123 -113 -304 -112q-188 0 -311 110l-112 -118l-99 98l113 119q-106 129 -107 299q0 193 111 303z" />
<glyph unicode="&#xa5;" d="M475 0v356h-289v123h289v86l-37 68h-252v123h189l-375 706h223l357 -723l346 723h213l-365 -706h191v-123h-258l-37 -68v-86h295v-123h-295v-356h-195z" />
<glyph unicode="&#xa6;" horiz-adv-x="454" d="M297 1354v-512h-139v512h139zM158 -182v512h139v-512h-139z" />
<glyph unicode="&#xa7;" d="M952 1118h-174q-2 98 -57 161.5t-150 63.5q-86 0 -140 -45t-54 -131q0 -43 22.5 -80.5t72.5 -74.5t92 -61.5t118 -65.5q23 -12 35 -19q78 -43 127 -74.5t104.5 -80.5t82 -109.5t26.5 -132.5q0 -100 -59.5 -182t-153.5 -119q121 -90 121 -246q0 -145 -107.5 -236.5 t-275.5 -91.5q-182 0 -291 103.5t-121 284.5h174q2 -104 65.5 -169t168.5 -65q82 0 144 45t62 125q0 23 -6 44.5t-19.5 42t-26.5 36.5t-39 36l-43 33q-17 13 -51 32l-53 31l-60 33l-58 32q-80 43 -132 76.5t-109.5 87t-86 119t-28.5 145.5q0 94 63.5 176t155.5 106 q-94 100 -94 217q0 152 113.5 242t264.5 90q172 0 272.5 -96.5t104.5 -282.5zM389 860q-63 -20 -106 -71.5t-43 -114.5q0 -20 3 -40t13 -38t16.5 -31.5t24.5 -30l26.5 -24.5t32 -23.5t30.5 -20.5t36 -22.5t33 -19.5q164 -86 286 -170q147 61 148 190q0 25 -6 46.5t-24 44.5 l-28 35q-10 13 -39 35l-38 28q-8 6 -44 28.5t-38 24.5q-222 131 -283 174z" />
<glyph unicode="&#xa8;" horiz-adv-x="454" d="M-57 1233v213h184v-213h-184zM328 1233v213h184v-213h-184z" />
<glyph unicode="&#xa9;" horiz-adv-x="1638" d="M1096 584h131q-33 -147 -136.5 -234.5t-244.5 -87.5q-205 0 -330 132t-125 337q0 209 121 338t328 129q152 0 256 -81t129 -230h-129q-16 88 -85 143t-169 55q-147 0 -229.5 -98t-82.5 -252q0 -150 86 -255t230 -105q100 0 168 57.5t82 151.5zM188 735q0 -281 181.5 -469 t451.5 -188q266 0 447.5 188.5t181.5 468.5q0 274 -181.5 461.5t-447.5 187.5q-270 0 -451.5 -187.5t-181.5 -461.5zM49 735q0 322 227.5 542t545 220t542.5 -220t225 -542q0 -326 -225 -548t-543 -222q-319 0 -545.5 222t-226.5 548z" />
<glyph unicode="&#xaa;" horiz-adv-x="774" d="M317 881q104 0 156.5 43t52.5 98v96q-18 -12 -49 -19t-85 -15.5t-70 -12.5q-66 -12 -99 -34.5t-33 -71.5q0 -84 127 -84zM649 1274v-328q0 -66 29 -65h22q10 0 23 4v-90q-43 -16 -88 -17q-98 0 -105 94q-88 -94 -239 -94q-104 0 -172 46t-68 137q0 98 71 146t175 56 q154 18 194.5 31.5t40.5 54.5q0 61 -41.5 81t-115.5 20q-162 0 -170 -115h-123q4 111 89 164t212 53q266 0 266 -178z" />
<glyph unicode="&#xab;" horiz-adv-x="948" d="M414 233l-312 246v180l312 246v-176l-205 -160l205 -159v-177zM815 233l-311 246v180l311 246v-176l-205 -160l205 -159v-177z" />
<glyph unicode="&#xac;" horiz-adv-x="1228" d="M1130 795v-572h-139v432h-893v140h1032z" />
<glyph unicode="&#xad;" horiz-adv-x="796" d="M102 487v164h592v-164h-592z" />
<glyph unicode="&#xae;" horiz-adv-x="1638" d="M662 1067v-285h145q45 0 72.5 2t62.5 9.5t54.5 22.5t32.5 44t13 70q0 137 -196 137h-184zM522 285v895h346q313 0 314 -256q0 -219 -236 -244l256 -395h-149l-244 385h-147v-385h-140zM188 735q0 -281 181.5 -469t451.5 -188q266 0 447.5 188.5t181.5 468.5 q0 274 -181.5 461.5t-447.5 187.5q-270 0 -451.5 -186.5t-181.5 -462.5zM49 735q0 322 227.5 542t545 220t542.5 -220t225 -542q0 -326 -225 -548t-543 -222q-319 0 -545.5 222t-226.5 548z" />
<glyph unicode="&#xaf;" horiz-adv-x="454" d="M-121 1284v113h699v-113h-699z" />
<glyph unicode="&#xb0;" horiz-adv-x="819" d="M217 1157q0 -76 53.5 -134t139.5 -58t139 58t53 134t-53 134.5t-139 58.5t-139.5 -58.5t-53.5 -134.5zM115 1157q0 123 86 209t209 86q121 0 208 -87t87 -208q0 -123 -86.5 -209t-208.5 -86q-125 0 -210 85t-85 210z" />
<glyph unicode="&#xb1;" horiz-adv-x="1228" d="M98 0v139h1032v-139h-1032zM98 555v139h447v340h139v-340h446v-139h-446v-342h-139v342h-447z" />
<glyph unicode="&#xb2;" horiz-adv-x="681" d="M184 1137h-139q0 141 86 228t227 87q129 0 216.5 -69.5t87.5 -188.5q0 -102 -61.5 -169t-170.5 -128l-69 -40t-69.5 -41t-54 -37.5t-47 -45t-22.5 -47.5h481v-113h-620q4 74 23.5 130.5t60.5 98.5t75.5 66.5t96.5 61.5q137 82 187 131t50 135q0 66 -48 104.5t-122 38.5 q-86 0 -127 -57t-41 -145z" />
<glyph unicode="&#xb3;" horiz-adv-x="681" d="M270 977v102h49q74 0 122 33t48 100q0 59 -44 93t-113 34q-82 0 -123 -48t-41 -128h-139q8 135 88 212t215 77q133 0 215 -62.5t82 -177.5q0 -57 -40 -103t-100 -71v-4q88 -16 133.5 -71.5t45.5 -137.5q0 -129 -96.5 -197.5t-235.5 -68.5q-143 0 -235.5 76t-92.5 213h139 q4 -176 189 -176q82 0 137 40t55 107q0 80 -55 119t-135 39h-68z" />
<glyph unicode="&#xb4;" horiz-adv-x="454" d="M102 1206l177 293h223l-269 -293h-131z" />
<glyph unicode="&#xb5;" d="M1008 1059v-1059h-164v168h-4q-109 -193 -344 -193q-137 0 -187 78h-4v-459h-174v1465h174v-717q0 -98 57.5 -155.5t157.5 -57.5q154 0 234 91t80 241v598h174z" />
<glyph unicode="&#xb6;" horiz-adv-x="1228" d="M1055 1462v-1779h-140v1667h-249v-1667h-140v976q-186 0 -307 110t-121 271q0 201 125 311.5t342 110.5h490z" />
<glyph unicode="&#xb7;" horiz-adv-x="569" d="M154 637q0 53 38.5 92t92 39t92.5 -39t39 -92q0 -49 -40 -90t-89 -41q-53 0 -93 39t-40 92z" />
<glyph unicode="&#xb8;" horiz-adv-x="454" d="M10 -391l37 90q61 -27 125 -27q49 0 88 15.5t39 48.5q0 29 -26.5 46t-69.5 17q-35 0 -84 -16l-35 57l125 160h86l-86 -109l4 -4q20 14 68 15q72 0 122 -39t50 -111q0 -94 -77 -138t-177 -44q-78 0 -189 39z" />
<glyph unicode="&#xb9;" horiz-adv-x="681" d="M510 1452v-879h-139v631h-236v103q238 0 273 145h102z" />
<glyph unicode="&#xba;" horiz-adv-x="786" d="M393 1350q-90 0 -146.5 -60.5t-56.5 -177.5q0 -100 50.5 -165.5t154.5 -65.5q102 0 151.5 64.5t49.5 164.5q0 133 -59.5 186.5t-143.5 53.5zM393 1452q162 0 252 -95t90 -245q0 -152 -88 -243t-252 -91q-160 0 -252 92.5t-92 241.5q0 147 91 243.5t251 96.5z" />
<glyph unicode="&#xbb;" horiz-adv-x="948" d="M535 905l311 -246v-180l-311 -246v177l204 159l-204 160v176zM133 905l311 -246v-180l-311 -246v177l205 159l-205 160v176z" />
<glyph unicode="&#xbc;" horiz-adv-x="1708" d="M449 1452v-879h-140v631h-235v103q240 0 272 145h103zM307 -57l891 1542h131l-891 -1542h-131zM1350 705l-303 -396h307v396h-4zM1481 879v-570h123v-112h-123v-197h-127v197h-408v118l430 564h105z" />
<glyph unicode="&#xbd;" horiz-adv-x="1708" d="M1167 563h-139q0 141 86 228.5t227 87.5q129 0 216.5 -70t87.5 -188q0 -102 -61.5 -169t-170.5 -128l-69 -40t-69.5 -41.5t-54 -38t-47 -45t-22.5 -46.5h481v-113h-620q4 74 23.5 130t60.5 98t75.5 66.5t96.5 61.5q137 82 187 131.5t50 135.5q0 66 -48 104.5t-122 38.5 q-86 0 -127 -57.5t-41 -145.5zM449 1452v-879h-140v631h-235v103q240 0 272 145h103zM276 -57l891 1542h131l-890 -1542h-132z" />
<glyph unicode="&#xbe;" horiz-adv-x="1708" d="M362 977v102h50q74 0 122 33t48 100q0 59 -44 93t-114 34q-82 0 -123 -48t-41 -128h-139q8 135 88 212t215 77q133 0 215 -62.5t82 -177.5q0 -57 -40 -103t-99 -71v-4q88 -16 133 -71.5t45 -137.5q0 -129 -96.5 -197.5t-235.5 -68.5q-143 0 -235.5 76t-92.5 213h140 q4 -176 188 -176q82 0 137.5 40t55.5 107q0 80 -55.5 119t-135.5 39h-68zM440 -57l891 1542h131l-891 -1542h-131zM1386 696l-303 -395h308v395h-5zM1516 879v-570h122v-112h-122v-197h-127v197h-408v118l430 564h105z" />
<glyph unicode="&#xbf;" d="M690 1059v-228h-227v228h227zM856 61h174q4 -213 -122 -352t-337 -139q-195 0 -313.5 108.5t-118.5 301.5q0 115 45 190.5t131 157.5q45 43 66.5 65.5t53.5 62.5t45.5 83t13.5 92v63h174v-80q-4 -80 -32 -146.5t-68 -107.5l-84 -86l-82 -84q-38 -39 -60.5 -98t-17.5 -129 q8 -113 72.5 -176t174.5 -63q141 0 213 93.5t72 243.5z" />
<glyph unicode="&#xc0;" horiz-adv-x="1327" d="M659 1286l-247 -682h495l-243 682h-5zM-14 0l571 1462h215l571 -1462h-215l-159 440h-619l-164 -440h-200zM633 1595l-268 293h223l176 -293h-131z" />
<glyph unicode="&#xc1;" horiz-adv-x="1327" d="M659 1286l-247 -682h495l-243 682h-5zM-14 0l571 1462h215l571 -1462h-215l-159 440h-619l-164 -440h-200zM565 1595l176 293h224l-269 -293h-131z" />
<glyph unicode="&#xc2;" horiz-adv-x="1327" d="M659 1286l-247 -682h495l-243 682h-5zM-14 0l571 1462h215l571 -1462h-215l-159 440h-619l-164 -440h-200zM360 1595l211 293h191l213 -293h-172l-141 197l-144 -197h-158z" />
<glyph unicode="&#xc3;" horiz-adv-x="1327" d="M659 1286l-247 -682h495l-243 682h-5zM-14 0l571 1462h215l571 -1462h-215l-159 440h-619l-164 -440h-200zM911 1858h107q-12 -90 -66 -162q-53 -66 -141 -66q-63 0 -154 41q-104 39 -135 39q-39 0 -63 -24q-18 -16 -37 -62h-107q47 225 217 225q57 0 150.5 -41 t134.5 -41q67 1 94 91z" />
<glyph unicode="&#xc4;" horiz-adv-x="1327" d="M659 1286l-247 -682h495l-243 682h-5zM-14 0l571 1462h215l571 -1462h-215l-159 440h-619l-164 -440h-200zM379 1624v213h184v-213h-184zM764 1624v213h184v-213h-184z" />
<glyph unicode="&#xc5;" horiz-adv-x="1327" d="M432 1763.5q0 94.5 68.5 162t163 67.5t163 -67.5t68.5 -162t-68.5 -162t-163 -67.5t-163 67.5t-68.5 162zM526 1761.5q0 -59.5 39 -99.5t98.5 -40t98.5 40t39 99.5t-39 99.5t-98.5 40t-98.5 -40t-39 -99.5zM659 1286l-247 -682h495l-243 682h-5zM-14 0l571 1462h215 l571 -1462h-215l-159 440h-619l-164 -440h-200z" />
<glyph unicode="&#xc6;" horiz-adv-x="1896" d="M918 1298h-84l-345 -708h429v708zM-14 0l739 1462h1096v-164h-719v-464h676v-164h-676v-506h731v-164h-915v426h-504l-209 -426h-219z" />
<glyph unicode="&#xc7;" horiz-adv-x="1478" d="M1382 1022h-194q-31 152 -141.5 231.5t-268.5 79.5q-246 0 -370.5 -171t-124.5 -421q0 -268 123.5 -440t373.5 -172q186 0 298 118t124 304h195q-29 -272 -188.5 -426t-428.5 -158l-59 -76l4 -4q20 14 68 15q72 0 122 -39t50 -111q0 -94 -77 -138t-177 -44q-78 0 -189 39 l37 90q61 -27 125 -27q49 0 88 15.5t39 48.5q0 29 -26.5 46t-69.5 17q-35 0 -84 -16l-35 57l100 129q-297 25 -452.5 233t-155.5 525q0 334 183.5 552t508.5 218q238 0 404.5 -124t197.5 -351z" />
<glyph unicode="&#xc8;" horiz-adv-x="1251" d="M160 0v1462h1009v-164h-815v-464h760v-164h-760v-506h822v-164h-1016zM612 1595l-268 293h223l176 -293h-131z" />
<glyph unicode="&#xc9;" horiz-adv-x="1251" d="M160 0v1462h1009v-164h-815v-464h760v-164h-760v-506h822v-164h-1016zM582 1595l176 293h223l-268 -293h-131z" />
<glyph unicode="&#xca;" horiz-adv-x="1251" d="M160 0v1462h1009v-164h-815v-464h760v-164h-760v-506h822v-164h-1016zM358 1595l211 293h191l213 -293h-172l-142 197l-143 -197h-158z" />
<glyph unicode="&#xcb;" horiz-adv-x="1251" d="M160 0v1462h1009v-164h-815v-464h760v-164h-760v-506h822v-164h-1016zM387 1622v213h184v-213h-184zM772 1622v213h184v-213h-184z" />
<glyph unicode="&#xcc;" horiz-adv-x="530" d="M168 0v1462h194v-1462h-194zM231 1595l-268 293h223l176 -293h-131z" />
<glyph unicode="&#xcd;" horiz-adv-x="530" d="M168 0v1462h194v-1462h-194zM170 1595l176 293h223l-268 -293h-131z" />
<glyph unicode="&#xce;" horiz-adv-x="530" d="M168 0v1462h194v-1462h-194zM-33 1595l211 293h191l213 -293h-172l-142 197l-143 -197h-158z" />
<glyph unicode="&#xcf;" horiz-adv-x="530" d="M168 0v1462h194v-1462h-194zM-18 1622v213h184v-213h-184zM367 1622v213h184v-213h-184z" />
<glyph unicode="&#xd0;" horiz-adv-x="1441" d="M354 1298v-464h439v-140h-439v-530h324q53 0 103 7t126 41t129.5 91t93 170t39.5 266q0 274 -114.5 416.5t-372.5 142.5h-328zM160 0v694h-144v140h144v628h502q342 0 522 -174t180 -522q0 -766 -702 -766h-502z" />
<glyph unicode="&#xd1;" horiz-adv-x="1478" d="M158 0v1462h207l770 -1186h4v1186h184v-1462h-213l-764 1174h-4v-1174h-184zM997 1858h107q-12 -90 -66 -162q-53 -66 -141 -66q-63 0 -154 41q-104 39 -135 39q-39 0 -63 -24q-18 -16 -37 -62h-107q47 225 217 225q57 0 150.5 -41t134.5 -41q67 1 94 91z" />
<glyph unicode="&#xd2;" horiz-adv-x="1556" d="M272 731q0 -156 50.5 -288t168 -223t287.5 -91t288 91t168 223t50 288t-50 288t-168 223t-288 91t-287.5 -91t-168 -223t-50.5 -288zM78 731q0 205 75.5 376t238.5 280.5t386 109.5t386 -109.5t239 -280.5t76 -376t-76 -376t-239 -280.5t-386 -109.5t-386 109.5 t-238.5 280.5t-75.5 376zM741 1595l-268 293h223l176 -293h-131z" />
<glyph unicode="&#xd3;" horiz-adv-x="1556" d="M272 731q0 -156 50.5 -288t168 -223t287.5 -91t288 91t168 223t50 288t-50 288t-168 223t-288 91t-287.5 -91t-168 -223t-50.5 -288zM78 731q0 205 75.5 376t238.5 280.5t386 109.5t386 -109.5t239 -280.5t76 -376t-76 -376t-239 -280.5t-386 -109.5t-386 109.5 t-238.5 280.5t-75.5 376zM666 1595l176 293h223l-268 -293h-131z" />
<glyph unicode="&#xd4;" horiz-adv-x="1556" d="M272 731q0 -156 50.5 -288t168 -223t287.5 -91t288 91t168 223t50 288t-50 288t-168 223t-288 91t-287.5 -91t-168 -223t-50.5 -288zM78 731q0 205 75.5 376t238.5 280.5t386 109.5t386 -109.5t239 -280.5t76 -376t-76 -376t-239 -280.5t-386 -109.5t-386 109.5 t-238.5 280.5t-75.5 376zM475 1595l211 293h191l213 -293h-172l-142 197l-143 -197h-158z" />
<glyph unicode="&#xd5;" horiz-adv-x="1556" d="M272 731q0 -156 50.5 -288t168 -223t287.5 -91t288 91t168 223t50 288t-50 288t-168 223t-288 91t-287.5 -91t-168 -223t-50.5 -288zM78 731q0 205 75.5 376t238.5 280.5t386 109.5t386 -109.5t239 -280.5t76 -376t-76 -376t-239 -280.5t-386 -109.5t-386 109.5 t-238.5 280.5t-75.5 376zM1028 1858h107q-12 -90 -66 -162q-53 -66 -141 -66q-63 0 -154 41q-104 39 -135 39q-39 0 -64 -24q-18 -16 -36 -62h-107q47 225 217 225q57 0 150.5 -41t134.5 -41q67 1 94 91z" />
<glyph unicode="&#xd6;" horiz-adv-x="1556" d="M272 731q0 -156 50.5 -288t168 -223t287.5 -91t288 91t168 223t50 288t-50 288t-168 223t-288 91t-287.5 -91t-168 -223t-50.5 -288zM78 731q0 205 75.5 376t238.5 280.5t386 109.5t386 -109.5t239 -280.5t76 -376t-76 -376t-239 -280.5t-386 -109.5t-386 109.5 t-238.5 280.5t-75.5 376zM496 1622v213h184v-213h-184zM881 1622v213h184v-213h-184z" />
<glyph unicode="&#xd7;" horiz-adv-x="1228" d="M244 49l-99 98l373 373l-371 369l99 98l370 -369l369 369l98 -98l-368 -369l370 -373l-98 -98l-371 373z" />
<glyph unicode="&#xd8;" horiz-adv-x="1556" d="M1415 1495l66 -61l-168 -185q166 -209 166 -518q0 -205 -76 -376t-239 -280.5t-386 -109.5q-283 0 -469 176l-166 -182l-67 61l172 189q-170 207 -170 522q0 205 75.5 376t238.5 280.5t386 109.5q291 0 475 -180zM1186 1108l-756 -834q129 -145 348 -145q170 0 288 91 t168 223t50 288q0 221 -98 377zM375 348l755 834q-131 152 -352 151q-170 0 -287.5 -91t-168 -223t-50.5 -288q1 -227 103 -383z" />
<glyph unicode="&#xd9;" horiz-adv-x="1478" d="M1327 1462v-934q0 -276 -149.5 -419.5t-425.5 -143.5q-291 0 -445.5 139.5t-154.5 423.5v934h194v-934q0 -195 104.5 -297t301.5 -102q186 0 283.5 102.5t97.5 296.5v934h194zM705 1595l-269 293h223l177 -293h-131z" />
<glyph unicode="&#xda;" horiz-adv-x="1478" d="M1327 1462v-934q0 -276 -149.5 -419.5t-425.5 -143.5q-291 0 -445.5 139.5t-154.5 423.5v934h194v-934q0 -195 104.5 -297t301.5 -102q186 0 283.5 102.5t97.5 296.5v934h194zM645 1595l176 293h223l-268 -293h-131z" />
<glyph unicode="&#xdb;" horiz-adv-x="1478" d="M1327 1462v-934q0 -276 -149.5 -419.5t-425.5 -143.5q-291 0 -445.5 139.5t-154.5 423.5v934h194v-934q0 -195 104.5 -297t301.5 -102q186 0 283.5 102.5t97.5 296.5v934h194zM440 1595l211 293h191l213 -293h-172l-142 197l-143 -197h-158z" />
<glyph unicode="&#xdc;" horiz-adv-x="1478" d="M1327 1462v-934q0 -276 -149.5 -419.5t-425.5 -143.5q-291 0 -445.5 139.5t-154.5 423.5v934h194v-934q0 -195 104.5 -297t301.5 -102q186 0 283.5 102.5t97.5 296.5v934h194zM457 1622v213h184v-213h-184zM842 1622v213h184v-213h-184z" />
<glyph unicode="&#xdd;" horiz-adv-x="1327" d="M1323 1462l-559 -864v-598h-195v598l-565 864h232l438 -696l428 696h221zM602 1595l176 293h223l-268 -293h-131z" />
<glyph unicode="&#xde;" horiz-adv-x="1327" d="M354 1065v-537h381q319 -2 320 267q0 270 -320 270h-381zM354 0h-194v1462h194v-233h447q217 0 332.5 -114t115.5 -320.5t-115.5 -319.5t-332.5 -110h-447v-365z" />
<glyph unicode="&#xdf;" d="M131 0v1087q0 184 110.5 297t295.5 113q166 0 295 -95t129 -263q0 -250 -213 -318v-4q133 -16 205.5 -120.5t72.5 -245.5q0 -211 -132 -343.5t-341 -132.5q-47 0 -88 9v151q23 -6 70 -6q141 0 224 82t83 217q0 186 -91.5 246.5t-285.5 60.5v139q135 -8 223 48.5t88 189.5 q0 96 -65.5 163.5t-161.5 67.5q-119 0 -181.5 -63t-62.5 -223v-1057h-174z" />
<glyph unicode="&#xe0;" horiz-adv-x="1099" d="M1069 139v-135q-47 -29 -125 -29q-147 0 -147 164q-137 -164 -373 -164q-156 0 -253 73t-97 224q0 86 28.5 146.5t85 95.5t110.5 52.5t134 31.5q39 8 92.5 16.5t86 12.5t70.5 13t58.5 22.5t34.5 36t14 55.5q0 176 -235 176q-254 0 -264 -201h-174q8 184 131 269t317 85 q397 0 398 -290v-545q0 -72 8 -95.5t47 -23.5q22 0 53 10zM786 369v178q-41 -31 -137 -47.5t-178 -24.5t-147.5 -54t-65.5 -136q0 -80 58.5 -118t146.5 -38q158 0 240.5 76t82.5 164zM555 1206l-268 293h223l176 -293h-131z" />
<glyph unicode="&#xe1;" horiz-adv-x="1099" d="M1069 139v-135q-47 -29 -125 -29q-147 0 -147 164q-137 -164 -373 -164q-156 0 -253 73t-97 224q0 86 28.5 146.5t85 95.5t110.5 52.5t134 31.5q39 8 92.5 16.5t86 12.5t70.5 13t58.5 22.5t34.5 36t14 55.5q0 176 -235 176q-254 0 -264 -201h-174q8 184 131 269t317 85 q397 0 398 -290v-545q0 -72 8 -95.5t47 -23.5q22 0 53 10zM786 369v178q-41 -31 -137 -47.5t-178 -24.5t-147.5 -54t-65.5 -136q0 -80 58.5 -118t146.5 -38q158 0 240.5 76t82.5 164zM475 1206l176 293h223l-268 -293h-131z" />
<glyph unicode="&#xe2;" horiz-adv-x="1099" d="M1069 139v-135q-47 -29 -125 -29q-147 0 -147 164q-137 -164 -373 -164q-156 0 -253 73t-97 224q0 86 28.5 146.5t85 95.5t110.5 52.5t134 31.5q39 8 92.5 16.5t86 12.5t70.5 13t58.5 22.5t34.5 36t14 55.5q0 176 -235 176q-254 0 -264 -201h-174q8 184 131 269t317 85 q397 0 398 -290v-545q0 -72 8 -95.5t47 -23.5q22 0 53 10zM786 369v178q-41 -31 -137 -47.5t-178 -24.5t-147.5 -54t-65.5 -136q0 -80 58.5 -118t146.5 -38q158 0 240.5 76t82.5 164zM254 1206l211 293h190l213 -293h-172l-141 197l-143 -197h-158z" />
<glyph unicode="&#xe3;" horiz-adv-x="1099" d="M1069 139v-135q-47 -29 -125 -29q-147 0 -147 164q-137 -164 -373 -164q-156 0 -253 73t-97 224q0 86 28.5 146.5t85 95.5t110.5 52.5t134 31.5q39 8 92.5 16.5t86 12.5t70.5 13t58.5 22.5t34.5 36t14 55.5q0 176 -235 176q-254 0 -264 -201h-174q8 184 131 269t317 85 q397 0 398 -290v-545q0 -72 8 -95.5t47 -23.5q22 0 53 10zM786 369v178q-41 -31 -137 -47.5t-178 -24.5t-147.5 -54t-65.5 -136q0 -80 58.5 -118t146.5 -38q158 0 240.5 76t82.5 164zM809 1468h106q-12 -90 -65 -161q-53 -66 -141 -66q-63 0 -154 41q-104 39 -135 39 q-39 0 -64 -25q-18 -16 -37 -61h-106q47 225 217 225q57 0 150.5 -41t134.5 -41q67 0 94 90z" />
<glyph unicode="&#xe4;" horiz-adv-x="1099" d="M272 1233v213h185v-213h-185zM657 1233v213h185v-213h-185zM1069 139v-135q-47 -29 -125 -29q-147 0 -147 164q-137 -164 -373 -164q-156 0 -253 73t-97 224q0 86 28.5 146.5t85 95.5t110.5 52.5t134 31.5q39 8 92.5 16.5t86 12.5t70.5 13t58.5 22.5t34.5 36t14 55.5 q0 176 -235 176q-254 0 -264 -201h-174q8 184 131 269t317 85q397 0 398 -290v-545q0 -72 8 -95.5t47 -23.5q22 0 53 10zM786 369v178q-41 -31 -137 -47.5t-178 -24.5t-147.5 -54t-65.5 -136q0 -80 58.5 -118t146.5 -38q158 0 240.5 76t82.5 164z" />
<glyph unicode="&#xe5;" horiz-adv-x="1099" d="M1069 139v-135q-47 -29 -125 -29q-147 0 -147 164q-137 -164 -373 -164q-156 0 -253 73t-97 224q0 86 28.5 146.5t85 95.5t110.5 52.5t134 31.5q39 8 92.5 16.5t86 12.5t70.5 13t58.5 22.5t34.5 36t14 55.5q0 176 -235 176q-254 0 -264 -201h-174q8 184 131 269t317 85 q397 0 398 -290v-545q0 -72 8 -95.5t47 -23.5q22 0 53 10zM786 369v178q-41 -31 -137 -47.5t-178 -24.5t-147.5 -54t-65.5 -136q0 -80 58.5 -118t146.5 -38q158 0 240.5 76t82.5 164zM328 1382.5q0 94.5 68.5 162t162.5 67.5t163 -67.5t69 -162t-69 -162t-163 -67.5 t-162.5 67.5t-68.5 162zM422 1380.5q0 -59.5 39 -99.5t98 -40t98 40t39 99.5t-39 99.5t-98 40t-98 -40t-39 -99.5z" />
<glyph unicode="&#xe6;" horiz-adv-x="1781" d="M1733 477h-777q0 -150 82 -249t236 -99q102 0 173 52t95 153h178q-39 -172 -158.5 -265.5t-299.5 -93.5q-289 0 -383 207q-113 -207 -447 -207q-162 0 -260 73t-98 224q0 86 28.5 146.5t85 95.5t110.5 52.5t134 31.5l99.5 18.5t85 14.5t63.5 13t52.5 18.5t32.5 23.5 t22.5 33.5t5.5 46.5q0 96 -67 130t-173 34q-254 0 -264 -201h-174q8 184 131 269t317 85q279 0 355 -153q102 154 337 153q478 0 478 -606zM258 285q0 -80 58.5 -118t146.5 -38q158 0 244 77t86 163v178q-33 -20 -84.5 -32.5t-128 -23t-109.5 -16.5q-102 -20 -157.5 -60 t-55.5 -130zM956 631h592q-4 131 -80.5 215t-212.5 84q-137 0 -218 -84t-81 -215z" />
<glyph unicode="&#xe7;" horiz-adv-x="1099" d="M1030 719h-180q-43 211 -262 211q-174 0 -252 -117t-78 -297q0 -164 77 -275.5t232 -111.5q254 0 291 258h178q-29 -188 -140.5 -294.5t-295.5 -115.5l-68 -86l5 -4q20 14 67 15q72 0 122 -39t50 -111q0 -94 -76.5 -138t-177.5 -44q-78 0 -188 39l37 90q61 -27 125 -27 q49 0 88 15.5t39 48.5q0 29 -27 46t-70 17q-35 0 -84 -16l-34 57l108 140q-211 16 -326.5 161.5t-115.5 374.5q0 250 129 408.5t370 158.5q190 0 314.5 -91t142.5 -273z" />
<glyph unicode="&#xe8;" horiz-adv-x="1099" d="M258 631h608q-8 127 -93 213t-212 86q-131 0 -213 -86t-90 -213zM862 336h172q-35 -174 -152.5 -267.5t-299.5 -93.5q-244 0 -372 152t-136 405q0 240 140 395.5t357 155.5q109 0 195 -38.5t139 -100t88 -143.5t48.5 -163t9.5 -161h-793q-4 -147 80 -247.5t250 -100.5 q229 0 274 207zM573 1206l-268 293h223l177 -293h-132z" />
<glyph unicode="&#xe9;" horiz-adv-x="1099" d="M258 631h608q-8 127 -93 213t-212 86q-131 0 -213 -86t-90 -213zM862 336h172q-35 -174 -152.5 -267.5t-299.5 -93.5q-244 0 -372 152t-136 405q0 240 140 395.5t357 155.5q109 0 195 -38.5t139 -100t88 -143.5t48.5 -163t9.5 -161h-793q-4 -147 80 -247.5t250 -100.5 q229 0 274 207zM492 1206l176 293h223l-268 -293h-131z" />
<glyph unicode="&#xea;" horiz-adv-x="1099" d="M258 631h608q-8 127 -93 213t-212 86q-131 0 -213 -86t-90 -213zM862 336h172q-35 -174 -152.5 -267.5t-299.5 -93.5q-244 0 -372 152t-136 405q0 240 140 395.5t357 155.5q109 0 195 -38.5t139 -100t88 -143.5t48.5 -163t9.5 -161h-793q-4 -147 80 -247.5t250 -100.5 q229 0 274 207zM268 1206l211 293h191l213 -293h-172l-142 197l-143 -197h-158z" />
<glyph unicode="&#xeb;" horiz-adv-x="1099" d="M258 631h608q-8 127 -93 213t-212 86q-131 0 -213 -86t-90 -213zM862 336h172q-35 -174 -152.5 -267.5t-299.5 -93.5q-244 0 -372 152t-136 405q0 240 140 395.5t357 155.5q109 0 195 -38.5t139 -100t88 -143.5t48.5 -163t9.5 -161h-793q-4 -147 80 -247.5t250 -100.5 q229 0 274 207zM285 1233v213h184v-213h-184zM670 1233v213h184v-213h-184z" />
<glyph unicode="&#xec;" horiz-adv-x="454" d="M315 0h-174v1059h174v-1059zM186 1206l-268 293h223l176 -293h-131z" />
<glyph unicode="&#xed;" horiz-adv-x="454" d="M315 0h-174v1059h174v-1059zM137 1206l176 293h224l-269 -293h-131z" />
<glyph unicode="&#xee;" horiz-adv-x="454" d="M315 0h-174v1059h174v-1059zM-76 1206l211 293h191l213 -293h-172l-142 197l-143 -197h-158z" />
<glyph unicode="&#xef;" horiz-adv-x="454" d="M-55 1233v213h184v-213h-184zM330 1233v213h184v-213h-184zM315 0h-174v1059h174v-1059z" />
<glyph unicode="&#xf0;" horiz-adv-x="1175" d="M578 883q-154 0 -237 -96.5t-83 -258.5q0 -186 94 -292.5t235.5 -106.5t236 106.5t94.5 292.5q0 154 -85 254.5t-255 100.5zM557 1036q184 0 285 -114h4q-45 96 -120 184t-130 125l-236 -111l-77 82l223 105q-47 43 -144 98l144 92q86 -57 158 -115l245 115l72 -76 l-236 -108q356 -295 357 -785q0 -242 -135.5 -397.5t-379 -155.5t-378.5 156t-135 397q0 211 130 359.5t353 148.5z" />
<glyph unicode="&#xf1;" d="M131 0v1059h164v-168h4q109 193 344 192q197 0 281 -101t84 -286v-696h-174v717q0 98 -57.5 155.5t-158.5 57.5q-154 0 -233.5 -91t-79.5 -241v-598h-174zM815 1468h107q-12 -90 -66 -161q-53 -66 -141 -66q-63 0 -154 41q-104 39 -135 39q-39 0 -64 -25q-18 -16 -36 -61 h-107q47 225 217 225q57 0 150.5 -41t134.5 -41q67 0 94 90z" />
<glyph unicode="&#xf2;" horiz-adv-x="1175" d="M258 528.5q0 -186.5 94 -293t235.5 -106.5t236 106.5t94.5 293t-94.5 294t-236 107.5t-235.5 -107.5t-94 -294zM74 528q0 244 135 399.5t378.5 155.5t379 -155.5t135.5 -399.5q0 -242 -135.5 -397.5t-379 -155.5t-378.5 155.5t-135 397.5zM530 1206l-268 293h223 l177 -293h-132z" />
<glyph unicode="&#xf3;" horiz-adv-x="1175" d="M258 528.5q0 -186.5 94 -293t235.5 -106.5t236 106.5t94.5 293t-94.5 294t-236 107.5t-235.5 -107.5t-94 -294zM74 528q0 244 135 399.5t378.5 155.5t379 -155.5t135.5 -399.5q0 -242 -135.5 -397.5t-379 -155.5t-378.5 155.5t-135 397.5zM487 1206l177 293h223 l-269 -293h-131z" />
<glyph unicode="&#xf4;" horiz-adv-x="1175" d="M258 528.5q0 -186.5 94 -293t235.5 -106.5t236 106.5t94.5 293t-94.5 294t-236 107.5t-235.5 -107.5t-94 -294zM74 528q0 244 135 399.5t378.5 155.5t379 -155.5t135.5 -399.5q0 -242 -135.5 -397.5t-379 -155.5t-378.5 155.5t-135 397.5zM285 1206l211 293h190l213 -293 h-172l-141 197l-144 -197h-157z" />
<glyph unicode="&#xf5;" horiz-adv-x="1175" d="M258 528.5q0 -186.5 94 -293t235.5 -106.5t236 106.5t94.5 293t-94.5 294t-236 107.5t-235.5 -107.5t-94 -294zM74 528q0 244 135 399.5t378.5 155.5t379 -155.5t135.5 -399.5q0 -242 -135.5 -397.5t-379 -155.5t-378.5 155.5t-135 397.5zM836 1468h106q-12 -90 -65 -161 q-53 -66 -142 -66q-63 0 -153 41q-104 39 -136 39q-39 0 -63 -25q-18 -16 -37 -61h-106q47 225 217 225q57 0 150 -41t134 -41q68 0 95 90z" />
<glyph unicode="&#xf6;" horiz-adv-x="1175" d="M258 528.5q0 -186.5 94 -293t235.5 -106.5t236 106.5t94.5 293t-94.5 294t-236 107.5t-235.5 -107.5t-94 -294zM74 528q0 244 135 399.5t378.5 155.5t379 -155.5t135.5 -399.5q0 -242 -135.5 -397.5t-379 -155.5t-378.5 155.5t-135 397.5zM303 1233v213h184v-213h-184z M688 1233v213h184v-213h-184z" />
<glyph unicode="&#xf7;" horiz-adv-x="1228" d="M483 96.5q0 53.5 39 92t92.5 38.5t92 -38.5t38.5 -92.5q0 -49 -38.5 -90t-90.5 -41q-53 0 -93 39t-40 92.5zM483 940q0 53 39 92t92.5 39t92 -39t38.5 -92q0 -49 -38.5 -90t-90.5 -41q-53 0 -93 39t-40 92zM98 449v139h1032v-139h-1032z" />
<glyph unicode="&#xf8;" horiz-adv-x="1175" d="M1106 1042l-123 -135q119 -143 119 -379q0 -242 -135.5 -397.5t-378.5 -155.5q-205 0 -338 117l-123 -137l-57 49l127 141q-123 150 -123 383q0 244 135 399.5t379 155.5q211 0 344 -120l119 133zM860 772l-495 -551q92 -92 223 -92q141 0 235.5 106.5t94.5 292.5 q-1 140 -58 244zM319 281l496 553q-90 96 -227 96q-141 0 -235.5 -107.5t-94.5 -294.5q0 -141 61 -247z" />
<glyph unicode="&#xf9;" d="M1008 1059v-1059h-164v168h-4q-109 -193 -344 -193q-197 0 -281 101.5t-84 285.5v697h174v-717q0 -98 57.5 -155.5t157.5 -57.5q154 0 234 91t80 241v598h174zM524 1206l-268 293h223l176 -293h-131z" />
<glyph unicode="&#xfa;" d="M1008 1059v-1059h-164v168h-4q-109 -193 -344 -193q-197 0 -281 101.5t-84 285.5v697h174v-717q0 -98 57.5 -155.5t157.5 -57.5q154 0 234 91t80 241v598h174zM469 1206l176 293h223l-268 -293h-131z" />
<glyph unicode="&#xfb;" d="M1008 1059v-1059h-164v168h-4q-109 -193 -344 -193q-197 0 -281 101.5t-84 285.5v697h174v-717q0 -98 57.5 -155.5t157.5 -57.5q154 0 234 91t80 241v598h174zM262 1206l211 293h191l213 -293h-172l-142 197l-143 -197h-158z" />
<glyph unicode="&#xfc;" d="M1008 1059v-1059h-164v168h-4q-109 -193 -344 -193q-197 0 -281 101.5t-84 285.5v697h174v-717q0 -98 57.5 -155.5t157.5 -57.5q154 0 234 91t80 241v598h174zM283 1233v213h184v-213h-184zM668 1233v213h184v-213h-184z" />
<glyph unicode="&#xfd;" horiz-adv-x="1024" d="M1008 1059l-461 -1200q-63 -158 -128 -220.5t-179 -62.5q-72 0 -121 18v160q78 -25 102 -24q94 0 144 96l71 180l-420 1053h197l309 -866h4l297 866h185zM453 1206l176 293h223l-268 -293h-131z" />
<glyph unicode="&#xfe;" horiz-adv-x="1214" d="M311 1462v-547h4q82 168 338 168q233 0 360.5 -159.5t127.5 -397t-125 -394.5t-359 -157q-94 0 -192 40t-150 126h-4v-547h-174v1868h174zM956 539q0 162 -84 276.5t-243 114.5q-164 0 -244 -117t-80 -283q0 -170 83 -285.5t251 -115.5q166 0 241.5 118t75.5 292z" />
<glyph unicode="&#xff;" horiz-adv-x="1024" d="M1008 1059l-461 -1200q-63 -158 -128 -220.5t-179 -62.5q-72 0 -121 18v160q78 -25 102 -24q94 0 144 96l71 180l-420 1053h197l309 -866h4l297 866h185zM242 1233v213h184v-213h-184zM627 1233v213h184v-213h-184z" />
<glyph unicode="&#x152;" horiz-adv-x="2199" d="M1128 0v141h-4q-51 -84 -155.5 -130t-220.5 -46q-315 0 -492.5 215t-177.5 547q0 338 184 554t502 216q113 0 215 -40t145 -116h4v121h977v-164h-782v-464h717v-164h-717v-506h795v-164h-990zM762 129q156 0 261 81t105 208v616q0 94 -30 142q-45 68 -133 112.5 t-199 44.5q-238 0 -366 -176t-128 -438q0 -256 129.5 -423t360.5 -167z" />
<glyph unicode="&#x153;" horiz-adv-x="1824" d="M850 532q0 397 -295 398q-154 0 -225.5 -123t-71.5 -299q0 -154 74 -266.5t223 -112.5q111 0 179.5 63.5t92 148.5t23.5 191zM1001 631h584q0 137 -76.5 218t-212 81t-216.5 -83t-79 -216zM1769 477h-768q-4 -145 77 -246.5t229 -101.5q104 0 180 54.5t106 152.5h166 q-104 -360 -452 -361q-295 0 -385 209q-90 -209 -367 -209q-238 0 -359.5 156t-121.5 399.5t122.5 398t358.5 154.5q276 0 367 -186q53 90 155.5 138t218.5 48q252 0 368.5 -169t104.5 -437z" />
<glyph unicode="&#x178;" horiz-adv-x="1327" d="M1323 1462l-559 -864v-598h-195v598l-565 864h232l438 -696l428 696h221zM387 1622v213h184v-213h-184zM772 1622v213h184v-213h-184z" />
<glyph unicode="&#x2c6;" horiz-adv-x="454" d="M-80 1206l211 293h191l213 -293h-173l-141 197l-143 -197h-158z" />
<glyph unicode="&#x2dc;" horiz-adv-x="454" d="M477 1468h107q-12 -90 -66 -161q-53 -66 -141 -66q-63 0 -154 41q-104 39 -135 39q-39 0 -63 -25q-18 -16 -37 -61h-107q47 225 217 225q57 0 150.5 -41t134.5 -41q67 0 94 90z" />
<glyph unicode="&#x2000;" horiz-adv-x="995" />
<glyph unicode="&#x2001;" horiz-adv-x="1992" />
<glyph unicode="&#x2002;" horiz-adv-x="995" />
<glyph unicode="&#x2003;" horiz-adv-x="1992" />
<glyph unicode="&#x2004;" horiz-adv-x="663" />
<glyph unicode="&#x2005;" horiz-adv-x="497" />
<glyph unicode="&#x2006;" horiz-adv-x="331" />
<glyph unicode="&#x2007;" horiz-adv-x="331" />
<glyph unicode="&#x2008;" horiz-adv-x="247" />
<glyph unicode="&#x2009;" horiz-adv-x="397" />
<glyph unicode="&#x200a;" horiz-adv-x="110" />
<glyph unicode="&#x2010;" horiz-adv-x="796" d="M102 487v164h592v-164h-592z" />
<glyph unicode="&#x2011;" horiz-adv-x="796" d="M102 487v164h592v-164h-592z" />
<glyph unicode="&#x2012;" horiz-adv-x="796" d="M102 487v164h592v-164h-592z" />
<glyph unicode="&#x2013;" horiz-adv-x="1024" d="M0 487v164h1024v-164h-1024z" />
<glyph unicode="&#x2014;" horiz-adv-x="2048" d="M266 487v164h1516v-164h-1516z" />
<glyph unicode="&#x2018;" horiz-adv-x="569" d="M399 1161v-227h-227v227q0 131 57.5 216t167.5 85v-102q-63 0 -90.5 -58.5t-27.5 -140.5h120z" />
<glyph unicode="&#x2019;" horiz-adv-x="569" d="M170 1235v227h227v-227q0 -131 -57 -216t-168 -85v102q63 0 91 58.5t28 140.5h-121z" />
<glyph unicode="&#x201a;" horiz-adv-x="569" d="M170 0v227h227v-227q0 -131 -57 -216t-168 -85v102q63 0 91 58.5t28 140.5h-121z" />
<glyph unicode="&#x201c;" horiz-adv-x="872" d="M362 1161v-227h-227v227q0 131 57.5 216t167.5 85v-102q-63 0 -90.5 -58.5t-27.5 -140.5h120zM737 1161v-227h-227v227q0 131 57.5 216t167.5 85v-102q-63 0 -91 -58.5t-28 -140.5h121z" />
<glyph unicode="&#x201d;" horiz-adv-x="872" d="M135 1235v227h227v-227q0 -131 -57 -216t-168 -85v102q63 0 91 58.5t28 140.5h-121zM510 1235v227h227v-227q0 -131 -57 -216t-168 -85v102q63 0 91 58.5t28 140.5h-121z" />
<glyph unicode="&#x201e;" horiz-adv-x="872" d="M510 0v227h227v-227q0 -131 -57 -216t-168 -85v102q63 0 91 58.5t28 140.5h-121zM135 0v227h227v-227q0 -131 -57 -216t-168 -85v102q63 0 91 58.5t28 140.5h-121z" />
<glyph unicode="&#x2022;" horiz-adv-x="1024" d="M147 731.5q0 151.5 106.5 258t258.5 106.5t259.5 -106.5t107.5 -258t-107.5 -259t-259.5 -107.5t-258.5 107.5t-106.5 259z" />
<glyph unicode="&#x2026;" horiz-adv-x="2048" d="M1591 0v227h228v-227h-228zM909 0v227h228v-227h-228zM227 0v227h228v-227h-228z" />
<glyph unicode="&#x202f;" horiz-adv-x="397" />
<glyph unicode="&#x2039;" horiz-adv-x="530" d="M414 233l-312 246v180l312 246v-176l-205 -160l205 -159v-177z" />
<glyph unicode="&#x203a;" horiz-adv-x="530" d="M117 905l311 -246v-180l-311 -246v177l205 159l-205 160v176z" />
<glyph unicode="&#x205f;" horiz-adv-x="497" />
<glyph unicode="&#x2122;" horiz-adv-x="2027" d="M1898 1462v-844h-139v705h-4l-276 -705h-88l-277 705h-4v-705h-139v844h215l252 -641l248 641h212zM799 1462v-112h-264v-732h-140v732h-264v112h668z" />
<glyph unicode="&#xe000;" horiz-adv-x="1060" d="M0 1060h1060v-1060h-1060v1060z" />
<glyph unicode="&#xfb01;" horiz-adv-x="1060" d="M922 0h-174v1059h174v-1059zM922 1249h-174v213h174v-213zM203 0v905h-178v154h178v158q0 129 74.5 195.5t218.5 66.5q59 0 112 -17v-151q-43 14 -98 14q-68 0 -100.5 -26.5t-32.5 -92.5v-147h205v-154h-205v-905h-174z" />
<glyph unicode="&#xfb02;" horiz-adv-x="1060" d="M748 0v1462h174v-1462h-174zM203 0v905h-178v154h178v158q0 129 74.5 195.5t218.5 66.5q59 0 112 -17v-151q-43 14 -98 14q-68 0 -100.5 -26.5t-32.5 -92.5v-147h205v-154h-205v-905h-174z" />
<glyph unicode="&#xfb03;" horiz-adv-x="1667" d="M1527 1462v-213h-174v213h174zM1353 0v1059h174v-1059h-174zM809 0v905h-178v154h178v158q0 129 74.5 195.5t218.5 66.5q59 0 112 -17v-151q-43 14 -98 14q-68 0 -100.5 -26.5t-32.5 -92.5v-147h205v-154h-205v-905h-174zM203 0v905h-178v154h178v158q0 129 74.5 195.5 t218.5 66.5q59 0 112 -17v-151q-43 14 -98 14q-68 0 -100.5 -26.5t-32.5 -92.5v-147h205v-154h-205v-905h-174z" />
<glyph unicode="&#xfb04;" horiz-adv-x="1667" d="M1353 0v1462h174v-1462h-174zM809 0v905h-178v154h178v158q0 129 74.5 195.5t218.5 66.5q59 0 112 -17v-151q-43 14 -98 14q-68 0 -100.5 -26.5t-32.5 -92.5v-147h205v-154h-205v-905h-174zM203 0v905h-178v154h178v158q0 129 74.5 195.5t218.5 66.5q59 0 112 -17v-151 q-43 14 -98 14q-68 0 -100.5 -26.5t-32.5 -92.5v-147h205v-154h-205v-905h-174z" />
</font>
</defs>
</svg>
